<?xml version="1.0" standalone="no"?>
<svg id="Group89" width="202" height="220" viewBox="0 0 202 220" fill="none" xmlns="http://www.w3.org/2000/svg" style="max-width: 100%; max-height: 100%;">
<path d="M58.3631 154.416C48.0442 154.416 26.3564 121.144 16.7369 134.103C7.11748 147.061 28.7103 148.113 42.0974 163.172C61.0975 184.545 71.6556 211.328 98.2404 218.508C118.15 223.885 132.87 183.66 147.212 172.103C161.553 160.545 167.85 156.517 165.401 144.785C162.953 133.052 152.633 142.858 147.212 149.162C141.79 155.467 118.832 168.063 117.828 165.273C117.378 164.021 115.903 157.97 133.569 140.87C151.235 123.771 176.42 109.581 186.739 102.054C197.058 94.5265 203.005 95.2269 200.382 85.9458C197.759 76.6647 191.93 79.9769 183.416 85.9458C171.445 94.3384 156.856 111.125 151.235 100.831C148.098 95.0848 152.57 86.8937 155.434 80.5172C157.717 75.4361 159.455 70.5357 151.235 68.2592C143.016 65.9827 142.562 71.7573 138.467 80.5172C134.597 88.7946 133.569 100.831 129.311 111.513C125.053 122.195 122.369 129.662 114.505 128.499C102.722 126.757 101.593 107.782 104.186 94.5265C106.458 82.9134 111.621 67.8269 114.505 57.2269C116.9 48.4265 113.281 43.9411 109.959 41.6417C103.67 37.2895 100.293 39.379 99.792 47.5956C99.3458 54.9177 101.702 68.2592 98.2404 68.2592C94.6672 68.2592 92.0457 57.9417 89.43 47.6467L89.417 47.5956C86.6598 36.7435 89.417 29.5587 80.0508 27.2822C70.6845 25.0057 70.5083 36.7612 72.3543 53.1993C74.4487 71.8498 87.8949 97.2662 90.369 118.867C93.5651 146.773 93.2677 171.757 87.5715 169.476C82.7108 167.529 74.2844 149.992 70.2555 134.103C65.8616 116.773 67.2822 94.8767 66.9324 85.9458C66.5826 77.0149 65.7081 68.2592 55.7388 68.2592C45.7695 68.2592 52.4165 94.1762 46.6448 97.1532C43.8431 98.5983 39.0892 83.6267 30.3783 74.5633C21.1441 64.9556 9.74008 56.1762 2.74447 64.2315C-4.25113 72.2868 11.3145 71.9366 22.5078 88.9228C33.7011 105.909 65.0189 154.416 58.3631 154.416Z" stroke="white" stroke-width="2" stroke-dasharray="0,0,0,1283.887451171875"><animate attributeType="XML" attributeName="stroke-dasharray" repeatCount="1" dur="2.5s" values="0,0,0,1283.887451171875; 
          0,641.9437255859375,641.9437255859375,0; 
          1283.887451171875,0,0,0" keyTimes="0; 0.5; 1" fill="freeze"></animate></path>
<path d="M144 39.5C144 43.03 140.928 46 137 46C133.072 46 130 43.03 130 39.5C130 35.97 133.072 33 137 33C140.928 33 144 35.97 144 39.5Z" stroke="white" stroke-width="2" stroke-dasharray="0,0,0,42.4298095703125"><animate attributeType="XML" attributeName="stroke-dasharray" repeatCount="1" dur="2.5s" values="0,0,0,42.4298095703125; 
          0,21.21490478515625,21.21490478515625,0; 
          42.4298095703125,0,0,0" keyTimes="0; 0.5; 1" fill="freeze"></animate></path>
<circle cx="129.5" cy="4.5" r="3.5" stroke="white" stroke-width="2" stroke-dasharray="0,0,0,21.43027114868164"><animate attributeType="XML" attributeName="stroke-dasharray" repeatCount="1" dur="2.5s" values="0,0,0,21.43027114868164; 
          0,10.71513557434082,10.71513557434082,0; 
          21.43027114868164,0,0,0" keyTimes="0; 0.5; 1" fill="freeze"></animate></circle>
<setting>{"type":"direct","speed":20,"random":1,"shift":1,"size":1,"rupture":50}</setting></svg>