<?xml version="1.0" standalone="no"?>
<svg id="Group27" width="204" height="221" viewBox="0 0 204 221" fill="none" xmlns="http://www.w3.org/2000/svg" style="max-width: 100%; max-height: 100%;">
<path d="M59.3631 154.416C49.0442 154.416 27.3564 121.144 17.7369 134.103C8.11748 147.061 29.7103 148.113 43.0974 163.172C62.0975 184.545 72.6556 211.328 99.2404 218.508C119.15 223.885 133.87 183.66 148.212 172.103C162.553 160.545 168.85 156.517 166.401 144.785C163.953 133.052 153.633 142.858 148.212 149.162C142.79 155.467 119.832 168.063 118.828 165.273C118.378 164.021 116.903 157.97 134.569 140.87C152.235 123.771 177.42 109.581 187.739 102.054C198.058 94.5265 204.005 95.2269 201.382 85.9458C198.759 76.6647 192.93 79.9769 184.416 85.9458C172.445 94.3384 157.856 111.125 152.235 100.831C149.098 95.0848 153.57 86.8937 156.434 80.5172C158.717 75.4361 160.455 70.5357 152.235 68.2592C144.016 65.9827 143.562 71.7573 139.467 80.5172C135.597 88.7946 134.569 100.831 130.311 111.513C126.053 122.195 123.369 129.662 115.505 128.499C103.722 126.757 102.593 107.782 105.186 94.5265C107.458 82.9134 112.621 67.8269 115.505 57.2269C117.9 48.4265 114.281 43.9411 110.959 41.6417C104.67 37.2895 101.293 39.379 100.792 47.5956C100.346 54.9177 102.702 68.2592 99.2404 68.2592C95.6672 68.2592 93.0457 57.9417 90.43 47.6467L90.417 47.5956C87.6598 36.7435 90.417 29.5587 81.0508 27.2822C71.6845 25.0057 71.5083 36.7612 73.3543 53.1993C75.4487 71.8498 88.8949 97.2662 91.369 118.867C94.5651 146.773 94.2677 171.757 88.5715 169.476C83.7108 167.529 75.2844 149.992 71.2555 134.103C66.8616 116.773 68.2822 94.8767 67.9324 85.9458C67.5826 77.0149 66.7081 68.2592 56.7388 68.2592C46.7695 68.2592 53.4165 94.1762 47.6448 97.1532C44.8431 98.5983 40.0892 83.6267 31.3783 74.5633C22.1441 64.9556 10.7401 56.1762 3.74447 64.2315C-3.25113 72.2868 12.3145 71.9366 23.5078 88.9228C34.7011 105.909 66.0189 154.416 59.3631 154.416Z" stroke="black" stroke-width="3" stroke-dasharray="0,0,0,1283.887451171875"><animate attributeType="XML" attributeName="stroke-dasharray" repeatCount="1" dur="1.8518518518518519s" values="0,0,0,1283.887451171875; 
          0,641.9437255859375,641.9437255859375,0; 
          1283.887451171875,0,0,0" keyTimes="0; 0.5; 1" fill="freeze"></animate></path>
<path d="M144.5 39.5C144.5 42.724 141.683 45.5 138 45.5C134.317 45.5 131.5 42.724 131.5 39.5C131.5 36.276 134.317 33.5 138 33.5C141.683 33.5 144.5 36.276 144.5 39.5Z" stroke="black" stroke-width="3" stroke-dasharray="0,0,0,39.28782272338867"><animate attributeType="XML" attributeName="stroke-dasharray" repeatCount="1" dur="1.8518518518518519s" values="0,0,0,39.28782272338867; 
          0,19.643911361694336,19.643911361694336,0; 
          39.28782272338867,0,0,0" keyTimes="0; 0.5; 1" fill="freeze"></animate></path>
<circle cx="130.5" cy="4.5" r="3" stroke="black" stroke-width="3" stroke-dasharray="0,0,0,18.368793487548828"><animate attributeType="XML" attributeName="stroke-dasharray" repeatCount="1" dur="1.8518518518518519s" values="0,0,0,18.368793487548828; 
          0,9.184396743774414,9.184396743774414,0; 
          18.368793487548828,0,0,0" keyTimes="0; 0.5; 1" fill="freeze"></animate></circle>
<setting>{"type":"direct","speed":27,"random":1,"shift":1,"size":1,"rupture":50}</setting></svg>