<?xml version="1.0" standalone="no"?>
<svg id="Group63" width="368" height="335" viewBox="0 0 368 335" fill="none" xmlns="http://www.w3.org/2000/svg" style="max-width: 100%; max-height: 100%;">
<path d="M61.2065 153.203V180.493C61.2065 208.442 61.5141 225.669 62.1293 232.173C62.8324 238.589 63.4916 243.203 64.1068 246.016C64.7221 248.828 65.6449 251.333 66.8754 253.53C68.809 257.134 72.5004 260.957 77.9496 265H11.1088C18.0522 260.693 22.5785 256.958 24.6879 253.794C28.7309 247.817 30.7523 240.083 30.7523 230.591C30.6645 207.212 30.6205 186.03 30.6205 167.046V97.832C30.6205 84.7363 28.5551 75.2441 24.4242 69.3555C22.8422 67.2461 20.9525 65.2246 18.7553 63.291H117.896C123.872 65.4004 127.959 72.7832 130.157 85.4395C130.772 88.9551 131.079 92.3828 131.079 95.7227C131.079 102.578 130.069 108.027 128.047 112.07L120.928 97.832C116.182 88.5156 109.371 82.2754 100.494 79.1113C95.5717 77.3535 90.0346 76.4746 83.8822 76.4746C77.7299 76.4746 73.3354 76.6943 70.6986 77.1338C68.0619 77.4854 66.0404 78.4082 64.6342 79.9023C62.349 82.4512 61.2065 87.3291 61.2065 94.5361C61.2065 101.655 61.3822 106.621 61.7338 109.434C62.0854 112.158 62.9203 114.399 64.2387 116.157C66.9633 119.585 72.7201 121.299 81.5092 121.299H122.906C120.884 126.396 118.819 130 116.709 132.109C112.491 136.328 106.778 138.438 99.5707 138.438C96.7582 138.438 94.0775 138.13 91.5287 137.515C86.7826 136.372 82.6078 135.801 79.0043 135.801C75.4008 135.801 72.4125 136.152 70.0395 136.855C67.7543 137.471 65.9525 138.481 64.6342 139.888C62.349 142.349 61.2065 146.787 61.2065 153.203ZM181.525 63.291C178.273 71.4648 176.384 79.6826 175.856 87.9443C175.329 96.1182 174.933 103.149 174.67 109.038C174.406 114.927 174.186 121.035 174.011 127.363C173.747 142.129 173.615 155.576 173.615 167.705C173.615 217.451 175.461 247.949 179.152 259.199C179.767 261.133 180.558 263.066 181.525 265H136.042C138.766 259.023 140.392 253.618 140.92 248.784C141.447 243.95 141.93 238.193 142.37 231.514C143.425 217.715 143.952 201.807 143.952 183.789C143.952 165.771 143.908 153.467 143.82 146.875C143.732 140.195 143.6 133.691 143.425 127.363C142.809 96.5137 140.964 76.9141 137.888 68.5645L136.042 63.291H181.525ZM280.618 158.477L280.75 208.311C280.75 224.219 276.751 237.666 268.753 248.652C259.349 261.309 246.253 267.637 229.466 267.637C216.282 267.637 205.736 263.242 197.825 254.453C190.618 246.455 187.015 236.787 187.015 225.449C190.97 216.309 195.189 209.321 199.671 204.487C207.054 196.489 213.206 192.051 218.128 191.172C216.722 199.17 216.019 206.509 216.019 213.188C216.019 219.868 216.282 225.537 216.81 230.195C217.425 234.766 218.392 238.853 219.71 242.456C222.611 250.454 227.181 254.453 233.421 254.453C238.87 254.453 243.001 250.938 245.814 243.906C248.187 238.105 249.373 230.327 249.373 220.571V188.931C249.373 150.786 249.11 118.662 248.582 92.5586C248.406 85.6152 247.352 79.9023 245.418 75.4199C243.572 70.8496 240.408 66.8066 235.926 63.291H288.001C285.364 68.0371 283.738 73.1348 283.123 78.584C282.596 84.0332 282.113 90.0098 281.673 96.5137C280.97 108.906 280.618 129.561 280.618 158.477ZM346.753 63.291C343.501 71.4648 341.611 79.6826 341.084 87.9443C340.556 96.1182 340.161 103.149 339.897 109.038C339.633 114.927 339.414 121.035 339.238 127.363C338.974 142.129 338.842 155.576 338.842 167.705C338.842 217.451 340.688 247.949 344.379 259.199C344.995 261.133 345.786 263.066 346.753 265H301.269C303.994 259.023 305.62 253.618 306.147 248.784C306.674 243.95 307.158 238.193 307.597 231.514C308.652 217.715 309.179 201.807 309.179 183.789C309.179 165.771 309.135 153.467 309.047 146.875C308.96 140.195 308.828 133.691 308.652 127.363C308.037 96.5137 306.191 76.9141 303.115 68.5645L301.269 63.291H346.753Z" fill="black" stroke-dasharray="0,0,0,2479.425537109375"><animate attributeType="XML" attributeName="stroke-dasharray" repeatCount="1" dur="3.3333333333333335s" values="0,0,0,2479.425537109375; 
          0,1239.7127685546875,1239.7127685546875,0; 
          2479.425537109375,0,0,0" keyTimes="0; 0.5; 1" fill="freeze"></animate></path>
<path d="M37.2663 317.625C37.2663 319.146 36.9538 320.573 36.3288 321.906C35.7246 323.24 34.9017 324.406 33.86 325.406C32.8392 326.406 31.6413 327.198 30.2663 327.781C28.9121 328.344 27.4746 328.625 25.9538 328.625H22.735C21.2142 328.625 19.7663 328.344 18.3913 327.781C17.0371 327.198 15.8392 326.406 14.7975 325.406C13.7767 324.406 12.9538 323.24 12.3288 321.906C11.7246 320.573 11.4225 319.146 11.4225 317.625V315.844L15.4538 315.188V317.625C15.4538 318.625 15.6517 319.562 16.0475 320.438C16.4642 321.292 17.0163 322.052 17.7038 322.719C18.3913 323.365 19.1829 323.875 20.0788 324.25C20.9954 324.625 21.9538 324.812 22.9538 324.812H25.7663C26.7663 324.812 27.7142 324.625 28.61 324.25C29.5058 323.875 30.2975 323.365 30.985 322.719C31.6725 322.052 32.2142 321.292 32.61 320.438C33.0267 319.562 33.235 318.625 33.235 317.625V316.281C33.235 314.74 32.9329 313.458 32.3288 312.438C31.7246 311.417 30.9225 310.552 29.9225 309.844C28.9225 309.115 27.7871 308.5 26.5163 308C25.2663 307.5 23.9746 307 22.6413 306.5C21.3079 306 20.0058 305.448 18.735 304.844C17.485 304.24 16.36 303.49 15.36 302.594C14.36 301.677 13.5579 300.562 12.9538 299.25C12.3496 297.938 12.0475 296.323 12.0475 294.406V293.562C12.0475 292.042 12.3288 290.615 12.8913 289.281C13.4746 287.948 14.2663 286.781 15.2663 285.781C16.2663 284.781 17.4329 284 18.7663 283.438C20.1204 282.854 21.5579 282.562 23.0788 282.562H25.9538C27.4746 282.562 28.9017 282.854 30.235 283.438C31.5683 284 32.735 284.781 33.735 285.781C34.735 286.781 35.5163 287.948 36.0788 289.281C36.6621 290.615 36.9538 292.042 36.9538 293.562V294.719L32.9225 295.375V293.562C32.9225 292.562 32.735 291.635 32.36 290.781C31.985 289.906 31.4746 289.146 30.8288 288.5C30.1829 287.854 29.4225 287.344 28.5475 286.969C27.6933 286.594 26.7663 286.406 25.7663 286.406H23.2663C22.2663 286.406 21.3288 286.594 20.4538 286.969C19.5996 287.344 18.8392 287.854 18.1725 288.5C17.5267 289.146 17.0163 289.906 16.6413 290.781C16.2663 291.635 16.0788 292.562 16.0788 293.562V294.406C16.0788 295.844 16.3808 297.052 16.985 298.031C17.5892 299.01 18.3913 299.854 19.3913 300.562C20.3913 301.25 21.5163 301.854 22.7663 302.375C24.0371 302.875 25.3392 303.396 26.6725 303.938C28.0058 304.458 29.2975 305.042 30.5475 305.688C31.8183 306.312 32.9538 307.094 33.9538 308.031C34.9538 308.948 35.7558 310.073 36.36 311.406C36.9642 312.74 37.2663 314.365 37.2663 316.281V317.625ZM89.3962 317.625C89.3962 319.146 89.1046 320.573 88.5212 321.906C87.9587 323.24 87.1775 324.406 86.1775 325.406C85.1775 326.406 84.0108 327.198 82.6775 327.781C81.3442 328.344 79.9171 328.625 78.3962 328.625H75.2087C73.6879 328.625 72.2504 328.344 70.8962 327.781C69.5629 327.198 68.3962 326.406 67.3962 325.406C66.3962 324.406 65.6046 323.24 65.0212 321.906C64.4587 320.573 64.1775 319.146 64.1775 317.625V283.188H68.2087V317.625C68.2087 318.625 68.3962 319.562 68.7712 320.438C69.1462 321.292 69.6567 322.052 70.3025 322.719C70.9692 323.365 71.7296 323.875 72.5837 324.25C73.4587 324.625 74.3962 324.812 75.3962 324.812H78.2087C79.2087 324.812 80.1358 324.625 80.99 324.25C81.865 323.875 82.6254 323.365 83.2712 322.719C83.9171 322.052 84.4275 321.292 84.8025 320.438C85.1775 319.562 85.365 318.625 85.365 317.625V283.188H89.3962V317.625ZM140.995 328L122.307 295.375L121.932 293.438V328H117.901V283.188H119.995L138.682 315.844L139.089 317.75V283.188H143.12V328H140.995ZM196.844 317.625C196.844 319.146 196.552 320.573 195.969 321.906C195.406 323.24 194.625 324.406 193.625 325.406C192.625 326.406 191.458 327.198 190.125 327.781C188.792 328.344 187.365 328.625 185.844 328.625H182.656C181.135 328.625 179.698 328.344 178.344 327.781C177.01 327.198 175.844 326.406 174.844 325.406C173.844 324.406 173.052 323.24 172.469 321.906C171.906 320.573 171.625 319.146 171.625 317.625V293.562C171.625 292.042 171.906 290.615 172.469 289.281C173.052 287.948 173.844 286.781 174.844 285.781C175.844 284.781 177.01 284 178.344 283.438C179.698 282.854 181.135 282.562 182.656 282.562H185.844C187.365 282.562 188.792 282.854 190.125 283.438C191.458 284 192.625 284.781 193.625 285.781C194.625 286.781 195.406 287.948 195.969 289.281C196.552 290.615 196.844 292.042 196.844 293.562V295.375L192.812 296V293.562C192.812 292.562 192.625 291.635 192.25 290.781C191.875 289.906 191.365 289.146 190.719 288.5C190.073 287.854 189.312 287.344 188.438 286.969C187.583 286.594 186.656 286.406 185.656 286.406H182.844C181.844 286.406 180.906 286.594 180.031 286.969C179.177 287.344 178.417 287.854 177.75 288.5C177.104 289.146 176.594 289.906 176.219 290.781C175.844 291.635 175.656 292.562 175.656 293.562V317.625C175.656 318.625 175.844 319.562 176.219 320.438C176.594 321.292 177.104 322.052 177.75 322.719C178.417 323.365 179.177 323.875 180.031 324.25C180.906 324.625 181.844 324.812 182.844 324.812H185.656C186.656 324.812 187.583 324.625 188.438 324.25C189.312 323.875 190.073 323.365 190.719 322.719C191.365 322.052 191.875 321.292 192.25 320.438C192.625 319.562 192.812 318.625 192.812 317.625V315.188L196.844 315.844V317.625ZM241.536 317.562H227.349L224.411 328H220.224L233.349 283.188H235.474L248.661 328H244.505L241.536 317.562ZM228.442 313.719H240.474L234.567 293.062L234.442 291.406L234.317 293.062L228.442 313.719ZM294.354 328L282.198 308.875H276.666V328H272.635V283.188H286.854C288.375 283.188 289.802 283.479 291.135 284.062C292.468 284.625 293.635 285.406 294.635 286.406C295.635 287.406 296.416 288.583 296.979 289.938C297.562 291.271 297.854 292.698 297.854 294.219V297.844C297.854 299.365 297.562 300.802 296.979 302.156C296.416 303.49 295.635 304.656 294.635 305.656C293.635 306.656 292.468 307.448 291.135 308.031C289.802 308.594 288.375 308.875 286.854 308.875L299.01 328H294.354ZM293.823 294.219C293.823 293.219 293.635 292.292 293.26 291.438C292.885 290.562 292.375 289.802 291.729 289.156C291.083 288.49 290.323 287.969 289.448 287.594C288.593 287.219 287.666 287.031 286.666 287.031H276.666V305.031H286.666C287.666 305.031 288.593 304.844 289.448 304.469C290.323 304.094 291.083 303.583 291.729 302.938C292.375 302.271 292.885 301.51 293.26 300.656C293.635 299.781 293.823 298.844 293.823 297.844V294.219ZM325.609 328V283.188H350.828V287.031H329.64V303.688H346.796V307.531H329.64V324.156H350.828V328H325.609Z" fill="black" stroke-dasharray="0,0,0,1517.357177734375"><animate attributeType="XML" attributeName="stroke-dasharray" repeatCount="1" dur="3.3333333333333335s" values="0,0,0,1517.357177734375; 
          0,758.6785888671875,758.6785888671875,0; 
          1517.357177734375,0,0,0" keyTimes="0; 0.5; 1" fill="freeze"></animate></path>
<setting>{"type":"direct","speed":15,"random":1,"shift":1,"size":1,"rupture":50}</setting></svg>