<?xml version="1.0" standalone="no"?>
<svg id="Group99" width="361" height="335" viewBox="0 0 361 335" fill="none" xmlns="http://www.w3.org/2000/svg" style="max-width: 100%; max-height: 100%;">
<path d="M54.2065 153.203V180.493C54.2065 208.442 54.5141 225.669 55.1293 232.173C55.8324 238.589 56.4916 243.203 57.1068 246.016C57.7221 248.828 58.6449 251.333 59.8754 253.53C61.809 257.134 65.5004 260.957 70.9496 265H4.1088C11.0522 260.693 15.5785 256.958 17.6879 253.794C21.7309 247.817 23.7523 240.083 23.7523 230.591C23.6645 207.212 23.6205 186.03 23.6205 167.046V97.832C23.6205 84.7363 21.5551 75.2441 17.4242 69.3555C15.8422 67.2461 13.9525 65.2246 11.7553 63.291H110.896C116.872 65.4004 120.959 72.7832 123.157 85.4395C123.772 88.9551 124.079 92.3828 124.079 95.7227C124.079 102.578 123.069 108.027 121.047 112.07L113.928 97.832C109.182 88.5156 102.371 82.2754 93.4936 79.1113C88.5717 77.3535 83.0346 76.4746 76.8822 76.4746C70.7299 76.4746 66.3354 76.6943 63.6986 77.1338C61.0619 77.4854 59.0404 78.4082 57.6342 79.9023C55.349 82.4512 54.2065 87.3291 54.2065 94.5361C54.2065 101.655 54.3822 106.621 54.7338 109.434C55.0854 112.158 55.9203 114.399 57.2387 116.157C59.9633 119.585 65.7201 121.299 74.5092 121.299H115.906C113.884 126.396 111.819 130 109.709 132.109C105.491 136.328 99.7777 138.438 92.5707 138.438C89.7582 138.438 87.0775 138.13 84.5287 137.515C79.7826 136.372 75.6078 135.801 72.0043 135.801C68.4008 135.801 65.4125 136.152 63.0395 136.855C60.7543 137.471 58.9525 138.481 57.6342 139.888C55.349 142.349 54.2065 146.787 54.2065 153.203ZM174.525 63.291C171.273 71.4648 169.384 79.6826 168.856 87.9443C168.329 96.1182 167.933 103.149 167.67 109.038C167.406 114.927 167.186 121.035 167.011 127.363C166.747 142.129 166.615 155.576 166.615 167.705C166.615 217.451 168.461 247.949 172.152 259.199C172.767 261.133 173.558 263.066 174.525 265H129.042C131.766 259.023 133.392 253.618 133.92 248.784C134.447 243.95 134.93 238.193 135.37 231.514C136.425 217.715 136.952 201.807 136.952 183.789C136.952 165.771 136.908 153.467 136.82 146.875C136.732 140.195 136.6 133.691 136.425 127.363C135.809 96.5137 133.964 76.9141 130.888 68.5645L129.042 63.291H174.525ZM273.618 158.477L273.75 208.311C273.75 224.219 269.751 237.666 261.753 248.652C252.349 261.309 239.253 267.637 222.466 267.637C209.282 267.637 198.736 263.242 190.825 254.453C183.618 246.455 180.015 236.787 180.015 225.449C183.97 216.309 188.189 209.321 192.671 204.487C200.054 196.489 206.206 192.051 211.128 191.172C209.722 199.17 209.019 206.509 209.019 213.188C209.019 219.868 209.282 225.537 209.81 230.195C210.425 234.766 211.392 238.853 212.71 242.456C215.611 250.454 220.181 254.453 226.421 254.453C231.87 254.453 236.001 250.938 238.814 243.906C241.187 238.105 242.373 230.327 242.373 220.571V188.931C242.373 150.786 242.11 118.662 241.582 92.5586C241.406 85.6152 240.352 79.9023 238.418 75.4199C236.572 70.8496 233.408 66.8066 228.926 63.291H281.001C278.364 68.0371 276.738 73.1348 276.123 78.584C275.596 84.0332 275.113 90.0098 274.673 96.5137C273.97 108.906 273.618 129.561 273.618 158.477ZM339.753 63.291C336.501 71.4648 334.611 79.6826 334.084 87.9443C333.556 96.1182 333.161 103.149 332.897 109.038C332.633 114.927 332.414 121.035 332.238 127.363C331.974 142.129 331.842 155.576 331.842 167.705C331.842 217.451 333.688 247.949 337.379 259.199C337.995 261.133 338.786 263.066 339.753 265H294.269C296.994 259.023 298.62 253.618 299.147 248.784C299.674 243.95 300.158 238.193 300.597 231.514C301.652 217.715 302.179 201.807 302.179 183.789C302.179 165.771 302.135 153.467 302.047 146.875C301.96 140.195 301.828 133.691 301.652 127.363C301.037 96.5137 299.191 76.9141 296.115 68.5645L294.269 63.291H339.753Z" fill="#041C2C" stroke-dasharray="0,0,0,2479.42529296875"><animate attributeType="XML" attributeName="stroke-dasharray" repeatCount="1" dur="2.5s" values="0,0,0,2479.42529296875; 
          0,1239.712646484375,1239.712646484375,0; 
          2479.42529296875,0,0,0" keyTimes="0; 0.5; 1" fill="freeze"></animate></path>
<path d="M31.7663 322.625C31.7663 324.146 31.4538 325.573 30.8288 326.906C30.2246 328.24 29.4017 329.406 28.36 330.406C27.3392 331.406 26.1413 332.198 24.7663 332.781C23.4121 333.344 21.9746 333.625 20.4538 333.625H17.235C15.7142 333.625 14.2663 333.344 12.8913 332.781C11.5371 332.198 10.3392 331.406 9.2975 330.406C8.27667 329.406 7.45375 328.24 6.82875 326.906C6.22458 325.573 5.9225 324.146 5.9225 322.625V320.844L9.95375 320.188V322.625C9.95375 323.625 10.1517 324.562 10.5475 325.438C10.9642 326.292 11.5163 327.052 12.2038 327.719C12.8913 328.365 13.6829 328.875 14.5788 329.25C15.4954 329.625 16.4538 329.812 17.4538 329.812H20.2663C21.2663 329.812 22.2142 329.625 23.11 329.25C24.0058 328.875 24.7975 328.365 25.485 327.719C26.1725 327.052 26.7142 326.292 27.11 325.438C27.5267 324.562 27.735 323.625 27.735 322.625V321.281C27.735 319.74 27.4329 318.458 26.8288 317.438C26.2246 316.417 25.4225 315.552 24.4225 314.844C23.4225 314.115 22.2871 313.5 21.0163 313C19.7663 312.5 18.4746 312 17.1413 311.5C15.8079 311 14.5058 310.448 13.235 309.844C11.985 309.24 10.86 308.49 9.86 307.594C8.86 306.677 8.05792 305.562 7.45375 304.25C6.84958 302.938 6.5475 301.323 6.5475 299.406V298.562C6.5475 297.042 6.82875 295.615 7.39125 294.281C7.97458 292.948 8.76625 291.781 9.76625 290.781C10.7663 289.781 11.9329 289 13.2663 288.438C14.6204 287.854 16.0579 287.562 17.5788 287.562H20.4538C21.9746 287.562 23.4017 287.854 24.735 288.438C26.0683 289 27.235 289.781 28.235 290.781C29.235 291.781 30.0163 292.948 30.5788 294.281C31.1621 295.615 31.4538 297.042 31.4538 298.562V299.719L27.4225 300.375V298.562C27.4225 297.562 27.235 296.635 26.86 295.781C26.485 294.906 25.9746 294.146 25.3288 293.5C24.6829 292.854 23.9225 292.344 23.0475 291.969C22.1933 291.594 21.2663 291.406 20.2663 291.406H17.7663C16.7663 291.406 15.8288 291.594 14.9538 291.969C14.0996 292.344 13.3392 292.854 12.6725 293.5C12.0267 294.146 11.5163 294.906 11.1413 295.781C10.7663 296.635 10.5788 297.562 10.5788 298.562V299.406C10.5788 300.844 10.8808 302.052 11.485 303.031C12.0892 304.01 12.8913 304.854 13.8913 305.562C14.8913 306.25 16.0163 306.854 17.2663 307.375C18.5371 307.875 19.8392 308.396 21.1725 308.938C22.5058 309.458 23.7975 310.042 25.0475 310.688C26.3183 311.312 27.4538 312.094 28.4538 313.031C29.4538 313.948 30.2558 315.073 30.86 316.406C31.4642 317.74 31.7663 319.365 31.7663 321.281V322.625ZM83.8962 322.625C83.8962 324.146 83.6046 325.573 83.0212 326.906C82.4587 328.24 81.6775 329.406 80.6775 330.406C79.6775 331.406 78.5108 332.198 77.1775 332.781C75.8442 333.344 74.4171 333.625 72.8962 333.625H69.7087C68.1879 333.625 66.7504 333.344 65.3962 332.781C64.0629 332.198 62.8962 331.406 61.8962 330.406C60.8962 329.406 60.1046 328.24 59.5212 326.906C58.9587 325.573 58.6775 324.146 58.6775 322.625V288.188H62.7087V322.625C62.7087 323.625 62.8962 324.562 63.2712 325.438C63.6462 326.292 64.1567 327.052 64.8025 327.719C65.4692 328.365 66.2296 328.875 67.0837 329.25C67.9587 329.625 68.8962 329.812 69.8962 329.812H72.7087C73.7087 329.812 74.6358 329.625 75.49 329.25C76.365 328.875 77.1254 328.365 77.7712 327.719C78.4171 327.052 78.9275 326.292 79.3025 325.438C79.6775 324.562 79.865 323.625 79.865 322.625V288.188H83.8962V322.625ZM135.495 333L116.807 300.375L116.432 298.438V333H112.401V288.188H114.495L133.182 320.844L133.589 322.75V288.188H137.62V333H135.495ZM191.344 322.625C191.344 324.146 191.052 325.573 190.469 326.906C189.906 328.24 189.125 329.406 188.125 330.406C187.125 331.406 185.958 332.198 184.625 332.781C183.292 333.344 181.865 333.625 180.344 333.625H177.156C175.635 333.625 174.198 333.344 172.844 332.781C171.51 332.198 170.344 331.406 169.344 330.406C168.344 329.406 167.552 328.24 166.969 326.906C166.406 325.573 166.125 324.146 166.125 322.625V298.562C166.125 297.042 166.406 295.615 166.969 294.281C167.552 292.948 168.344 291.781 169.344 290.781C170.344 289.781 171.51 289 172.844 288.438C174.198 287.854 175.635 287.562 177.156 287.562H180.344C181.865 287.562 183.292 287.854 184.625 288.438C185.958 289 187.125 289.781 188.125 290.781C189.125 291.781 189.906 292.948 190.469 294.281C191.052 295.615 191.344 297.042 191.344 298.562V300.375L187.312 301V298.562C187.312 297.562 187.125 296.635 186.75 295.781C186.375 294.906 185.865 294.146 185.219 293.5C184.573 292.854 183.812 292.344 182.938 291.969C182.083 291.594 181.156 291.406 180.156 291.406H177.344C176.344 291.406 175.406 291.594 174.531 291.969C173.677 292.344 172.917 292.854 172.25 293.5C171.604 294.146 171.094 294.906 170.719 295.781C170.344 296.635 170.156 297.562 170.156 298.562V322.625C170.156 323.625 170.344 324.562 170.719 325.438C171.094 326.292 171.604 327.052 172.25 327.719C172.917 328.365 173.677 328.875 174.531 329.25C175.406 329.625 176.344 329.812 177.344 329.812H180.156C181.156 329.812 182.083 329.625 182.938 329.25C183.812 328.875 184.573 328.365 185.219 327.719C185.865 327.052 186.375 326.292 186.75 325.438C187.125 324.562 187.312 323.625 187.312 322.625V320.188L191.344 320.844V322.625ZM236.036 322.562H221.849L218.911 333H214.724L227.849 288.188H229.974L243.161 333H239.005L236.036 322.562ZM222.942 318.719H234.974L229.067 298.062L228.942 296.406L228.817 298.062L222.942 318.719ZM288.854 333L276.698 313.875H271.166V333H267.135V288.188H281.354C282.875 288.188 284.302 288.479 285.635 289.062C286.968 289.625 288.135 290.406 289.135 291.406C290.135 292.406 290.916 293.583 291.479 294.938C292.062 296.271 292.354 297.698 292.354 299.219V302.844C292.354 304.365 292.062 305.802 291.479 307.156C290.916 308.49 290.135 309.656 289.135 310.656C288.135 311.656 286.968 312.448 285.635 313.031C284.302 313.594 282.875 313.875 281.354 313.875L293.51 333H288.854ZM288.323 299.219C288.323 298.219 288.135 297.292 287.76 296.438C287.385 295.562 286.875 294.802 286.229 294.156C285.583 293.49 284.823 292.969 283.948 292.594C283.093 292.219 282.166 292.031 281.166 292.031H271.166V310.031H281.166C282.166 310.031 283.093 309.844 283.948 309.469C284.823 309.094 285.583 308.583 286.229 307.938C286.875 307.271 287.385 306.51 287.76 305.656C288.135 304.781 288.323 303.844 288.323 302.844V299.219ZM320.109 333V288.188H345.328V292.031H324.14V308.688H341.296V312.531H324.14V329.156H345.328V333H320.109Z" fill="#041C2C" stroke-dasharray="0,0,0,1517.357177734375"><animate attributeType="XML" attributeName="stroke-dasharray" repeatCount="1" dur="2.5s" values="0,0,0,1517.357177734375; 
          0,758.6785888671875,758.6785888671875,0; 
          1517.357177734375,0,0,0" keyTimes="0; 0.5; 1" fill="freeze"></animate></path>
<setting>{"type":"direct","speed":20,"random":1,"shift":1,"size":1,"rupture":50}</setting></svg>